<svg width="26" height="26" viewBox="0 0 26 26" fill="none" xmlns="http://www.w3.org/2000/svg">
<circle cx="12.5007" cy="13.4997" r="9.89967" stroke="white" stroke-width="1.2"/>
<path d="M7.52734 13.4993C7.52734 13.1331 7.82424 12.8362 8.19048 12.8362H11.8376V9.18902C11.8376 8.82278 12.1345 8.52588 12.5008 8.52588C12.867 8.52588 13.1639 8.82278 13.1639 9.18902V12.8362H16.8113C17.1775 12.8362 17.4744 13.1331 17.4744 13.4993C17.4744 13.8655 17.1775 14.1624 16.8113 14.1624H13.1639V17.8098C13.1639 18.176 12.867 18.4729 12.5008 18.4729C12.1345 18.4729 11.8376 18.176 11.8376 17.8098V14.1624H8.19048C7.82424 14.1624 7.52734 13.8655 7.52734 13.4993Z" fill="white" stroke="white" stroke-width="0.2" stroke-linecap="round"/>
</svg>
