<svg width="26" height="26" viewBox="0 0 26 26" fill="none" xmlns="http://www.w3.org/2000/svg">
<path fill-rule="evenodd" clip-rule="evenodd" d="M5.70621 14.1881L16.3624 3.53184C16.7382 3.15606 17.3475 3.15605 17.7232 3.53182L21.168 6.97638C21.5438 7.35217 21.5438 7.96148 21.168 8.33728L10.5119 18.9935C10.3844 19.121 10.2237 19.2101 10.048 19.2507L6.31919 20.1119C5.27968 20.352 4.34795 19.4202 4.588 18.3807L5.44905 14.652C5.48962 14.4764 5.57872 14.3156 5.70621 14.1881ZM5.85467 18.6732L6.69393 15.0389L17.0429 4.68989L20.01 7.65685L9.66109 18.0058L6.02664 18.8452C5.92342 18.8691 5.8308 18.7765 5.85467 18.6732Z" fill="white"/>
<path d="M4.98301 21.4498C4.62402 21.4498 4.33301 21.7408 4.33301 22.0998C4.33301 22.4588 4.62402 22.7498 4.98301 22.7498H21.0163C21.3753 22.7498 21.6663 22.4588 21.6663 22.0998C21.6663 21.7408 21.3753 21.4498 21.0163 21.4498H4.98301Z" fill="white"/>
<path fill-rule="evenodd" clip-rule="evenodd" d="M5.70621 14.1881L16.3624 3.53184C16.7382 3.15606 17.3475 3.15605 17.7232 3.53182L21.168 6.97638C21.5438 7.35217 21.5438 7.96148 21.168 8.33728L10.5119 18.9935C10.3844 19.121 10.2237 19.2101 10.048 19.2507L6.31919 20.1119C5.27968 20.352 4.34795 19.4202 4.588 18.3807L5.44905 14.652C5.48962 14.4764 5.57872 14.3156 5.70621 14.1881ZM5.85467 18.6732L6.69393 15.0389L17.0429 4.68989L20.01 7.65685L9.66109 18.0058L6.02664 18.8452C5.92342 18.8691 5.8308 18.7765 5.85467 18.6732Z" stroke="white" stroke-width="0.2" stroke-linecap="round"/>
<path d="M4.98301 21.4498C4.62402 21.4498 4.33301 21.7408 4.33301 22.0998C4.33301 22.4588 4.62402 22.7498 4.98301 22.7498H21.0163C21.3753 22.7498 21.6663 22.4588 21.6663 22.0998C21.6663 21.7408 21.3753 21.4498 21.0163 21.4498H4.98301Z" stroke="white" stroke-width="0.2" stroke-linecap="round"/>
</svg>
